<?xml version="1.0" encoding="utf-8"?>
<!-- Generator: Adobe Illustrator 20.1.0, SVG Export Plug-In . SVG Version: 6.00 Build 0)  -->
<svg version="1.1" id="Capa_1" xmlns="http://www.w3.org/2000/svg" xmlns:xlink="http://www.w3.org/1999/xlink" x="0px" y="0px"
	 viewBox="0 0 100 100" enable-background="new 0 0 100 100" xml:space="preserve">
<g>
	<g>
		<g>
			<line fill="none" stroke="#282C33" stroke-width="0.25" stroke-miterlimit="10" x1="40" y1="9.286" x2="40" y2="90.714"/>
			<g>
				<polygon fill="#282C33" points="39.576,9.784 40,9.36 40.424,9.784 40.424,9.424 40,9 39.576,9.424 				"/>
			</g>
			<g>
				<polygon fill="#282C33" points="39.576,90.216 40,90.64 40.424,90.216 40.424,90.576 40,91 39.576,90.576 				"/>
			</g>
		</g>
	</g>
	<g>
		<g>
			<line fill="none" stroke="#282C33" stroke-width="0.25" stroke-miterlimit="10" x1="50" y1="9.286" x2="50" y2="90.714"/>
			<g>
				<polygon fill="#282C33" points="49.576,9.784 50,9.36 50.424,9.784 50.424,9.424 50,9 49.576,9.424 				"/>
			</g>
			<g>
				<polygon fill="#282C33" points="49.576,90.216 50,90.64 50.424,90.216 50.424,90.576 50,91 49.576,90.576 				"/>
			</g>
		</g>
	</g>
	<g>
		<g>
			<line fill="none" stroke="#282C33" stroke-width="0.25" stroke-miterlimit="10" x1="60" y1="9.286" x2="60" y2="90.714"/>
			<g>
				<polygon fill="#282C33" points="59.576,9.784 60,9.36 60.424,9.784 60.424,9.424 60,9 59.576,9.424 				"/>
			</g>
			<g>
				<polygon fill="#282C33" points="59.576,90.216 60,90.64 60.424,90.216 60.424,90.576 60,91 59.576,90.576 				"/>
			</g>
		</g>
	</g>
	<g>
		<g>
			<line fill="none" stroke="#282C33" stroke-width="0.25" stroke-miterlimit="10" x1="9.286" y1="60" x2="90.714" y2="60"/>
			<g>
				<polygon fill="#282C33" points="9.784,60.424 9.36,60 9.784,59.576 9.424,59.576 9,60 9.424,60.424 				"/>
			</g>
			<g>
				<polygon fill="#282C33" points="90.216,60.424 90.64,60 90.216,59.576 90.576,59.576 91,60 90.576,60.424 				"/>
			</g>
		</g>
	</g>
	<g>
		<g>
			<line fill="none" stroke="#282C33" stroke-width="0.25" stroke-miterlimit="10" x1="9.286" y1="50" x2="90.714" y2="50"/>
			<g>
				<polygon fill="#282C33" points="9.784,50.424 9.36,50 9.784,49.576 9.424,49.576 9,50 9.424,50.424 				"/>
			</g>
			<g>
				<polygon fill="#282C33" points="90.216,50.424 90.64,50 90.216,49.576 90.576,49.576 91,50 90.576,50.424 				"/>
			</g>
		</g>
	</g>
	<g>
		<g>
			<line fill="none" stroke="#282C33" stroke-width="0.25" stroke-miterlimit="10" x1="9.286" y1="40" x2="90.714" y2="40"/>
			<g>
				<polygon fill="#282C33" points="9.784,40.424 9.36,40 9.784,39.576 9.424,39.576 9,40 9.424,40.424 				"/>
			</g>
			<g>
				<polygon fill="#282C33" points="90.216,40.424 90.64,40 90.216,39.576 90.576,39.576 91,40 90.576,40.424 				"/>
			</g>
		</g>
	</g>
</g>
</svg>
